<svg xmlns="http://www.w3.org/2000/svg" data-name="Layer 1" viewBox="0 0 100 125" x="0px" y="0px"><defs><style>.cls-1{fill:#040000;}</style></defs><title>2</title><path class="cls-1" d="M67.62,38.5a1.3,1.3,0,0,0-1.6-.91L52.54,41.31l4.54-25.49a1.3,1.3,0,0,0-2.56-.46L49.76,42.08l-12.9,3.56a1.3,1.3,0,1,0,.69,2.51l11.71-3.23-5.38,30.2a1.3,1.3,0,0,0,1.05,1.51l.23,0a1.3,1.3,0,0,0,1.28-1.07L52,44.15l14.68-4.05A1.3,1.3,0,0,0,67.62,38.5Z"/><path class="cls-1" d="M34.05,43.9a1.3,1.3,0,0,0,1.14-1.45c-1-8,.43-9.12,7.4-10.58a1.3,1.3,0,1,0-.53-2.54c-8.68,1.82-10.53,4.45-9.45,13.44a1.3,1.3,0,0,0,1.29,1.15Z"/><path class="cls-1" d="M46.53,25.14h0a1.3,1.3,0,0,0,1.3-1.29l0-9.32a1.3,1.3,0,0,0-1.29-1.31,1.32,1.32,0,0,0-1.31,1.29l0,9.32A1.3,1.3,0,0,0,46.53,25.14Z"/><path class="cls-1" d="M56,53.67a1.3,1.3,0,0,0,.33,2.58c1.6-.21,2.67,0,3.18.72,1.35,1.8.23,6.86-3.33,15a1.3,1.3,0,1,0,2.38,1c4.18-9.62,5.08-14.89,3-17.64C60.43,53.93,58.55,53.34,56,53.67Z"/><path class="cls-1" d="M39.76,53.79c-4.48,2.9-7.69,6-4.88,16.64a1.3,1.3,0,0,0,2.51-.66c-2.55-9.7.39-11.6,3.78-13.8a1.3,1.3,0,0,0-1.41-2.18Z"/><text x="0" y="115" fill="#000000" font-size="5px" font-weight="bold" font-family="'Helvetica Neue', Helvetica, Arial-Unicode, Arial, Sans-serif">Created by goyacommae</text><text x="0" y="120" fill="#000000" font-size="5px" font-weight="bold" font-family="'Helvetica Neue', Helvetica, Arial-Unicode, Arial, Sans-serif">from the Noun Project</text></svg>