<?xml version="1.0" standalone="no"?>
<!DOCTYPE svg PUBLIC "-//W3C//DTD SVG 20010904//EN"
 "http://www.w3.org/TR/2001/REC-SVG-20010904/DTD/svg10.dtd">
<svg version="1.0" xmlns="http://www.w3.org/2000/svg"
 width="390.000000pt" height="390.000000pt" viewBox="0 0 390.000000 390.000000"
 preserveAspectRatio="xMidYMid meet">
<metadata>
Created by potrace 1.11, written by Peter Selinger 2001-2013
</metadata>
<g transform="translate(0.000000,390.000000) scale(0.100000,-0.100000)"
fill="#000000" stroke="none">
<path d="M1692 3805 l-27 -23 -1 -304 c0 -174 3 -312 9 -325 15 -33 60 -48 97
-33 17 7 35 21 40 31 6 10 10 146 10 321 0 292 -1 305 -20 326 -12 12 -24 23
-28 23 -38 7 -58 3 -80 -16z"/>
<path d="M2248 3743 c-27 -32 -25 -25 -64 -258 -3 -16 -9 -48 -14 -70 -5 -22
-11 -58 -14 -80 -4 -22 -13 -78 -22 -125 -17 -92 -20 -107 -34 -190 -16 -95
-20 -114 -25 -140 -3 -14 -12 -65 -20 -115 -9 -49 -24 -135 -35 -190 -10 -55
-22 -122 -25 -150 -4 -27 -9 -53 -11 -56 -1 -3 -6 -28 -10 -55 -3 -27 -8 -52
-10 -55 -1 -3 -6 -25 -9 -50 -16 -112 -15 -111 -80 -131 -33 -10 -69 -20 -80
-22 -75 -15 -641 -178 -660 -190 -55 -36 -25 -135 42 -136 23 0 40 5 456 119
142 39 260 71 263 71 8 0 0 -53 -36 -250 -11 -58 -22 -123 -25 -145 -4 -22 -8
-47 -10 -55 -2 -8 -16 -82 -30 -165 -33 -190 -34 -195 -40 -225 -3 -14 -10
-51 -15 -83 -6 -31 -14 -83 -20 -115 -10 -57 -15 -85 -25 -132 -3 -14 -7 -43
-11 -65 -3 -22 -7 -47 -9 -55 -2 -8 -7 -35 -10 -60 -3 -25 -10 -61 -15 -80 -5
-19 -12 -55 -15 -80 -4 -25 -10 -63 -15 -85 -5 -22 -12 -60 -15 -85 -4 -25
-10 -66 -15 -91 -11 -59 -8 -77 19 -105 17 -17 31 -22 54 -20 33 4 76 45 78
74 0 9 2 24 4 32 1 8 6 33 9 55 4 22 20 114 36 205 16 91 36 203 45 250 8 47
17 96 19 110 14 73 29 159 32 185 3 17 6 39 9 50 2 11 15 85 29 165 14 80 28
156 31 170 5 24 21 114 84 478 15 90 32 167 37 171 5 4 209 62 453 129 467
128 481 134 481 189 0 35 -15 59 -48 72 -31 13 -12 17 -412 -94 -113 -31 -212
-58 -220 -60 -8 -2 -61 -17 -117 -33 -56 -16 -104 -28 -106 -26 -2 2 9 75 25
161 16 87 31 174 34 193 3 19 7 42 9 50 3 8 7 33 11 55 3 22 28 162 54 310 27
149 51 287 54 307 3 21 10 58 16 83 6 25 12 61 14 79 3 19 12 71 21 117 9 46
18 101 21 122 3 21 7 46 9 55 3 23 -21 68 -40 76 -31 11 -72 6 -87 -11z"/>
<path d="M1369 2834 c-269 -69 -391 -156 -451 -322 -18 -49 -21 -80 -22 -217
-1 -185 3 -230 21 -266 23 -49 95 -55 130 -11 10 13 12 38 6 107 -30 397 24
480 367 563 62 15 114 33 128 45 25 23 29 72 8 99 -27 36 -55 37 -187 2z"/>
<path d="M1357 1399 c-39 -11 -147 -90 -212 -156 -79 -80 -132 -179 -153 -283
-9 -46 -9 -261 0 -330 15 -114 55 -254 78 -272 30 -24 64 -23 96 5 31 27 33
53 10 143 -24 96 -43 247 -40 321 8 183 71 293 226 396 31 20 64 44 72 53 24
23 20 77 -6 101 -33 29 -40 31 -71 22z"/>
<path d="M2311 1399 c-65 -14 -89 -86 -43 -131 19 -19 32 -22 99 -20 57 1 87
-3 112 -16 80 -40 94 -149 45 -362 -27 -120 -89 -299 -168 -485 -25 -60 -46
-117 -46 -127 0 -32 44 -71 79 -70 55 1 59 8 150 237 153 383 200 644 145 800
-24 67 -95 137 -162 159 -56 19 -158 26 -211 15z"/>
</g>
</svg>
